<?xml version="1.0" encoding="utf-8"?>
<!-- Generator: Adobe Illustrator 25.2.1, SVG Export Plug-In . SVG Version: 6.00 Build 0)  -->
<svg version="1.1" xmlns="http://www.w3.org/2000/svg" xmlns:xlink="http://www.w3.org/1999/xlink" x="0px" y="0px"
	 viewBox="0 0 225 204" style="enable-background:new 0 0 225 204;" xml:space="preserve">
<style type="text/css">
	.st0{opacity:0.15;fill:url(#SVGID_1_);}
	.st1{opacity:0.15;fill:url(#SVGID_2_);}
	.st2{fill:url(#SVGID_3_);}
	.st3{fill:url(#SVGID_4_);}
	.st4{fill:url(#SVGID_5_);}
	.st5{fill:url(#SVGID_6_);}
	.st6{fill:url(#SVGID_7_);}
	.st7{fill:url(#SVGID_8_);}
	.st8{fill:url(#SVGID_9_);}
	.st9{fill:url(#SVGID_10_);}
	.st10{fill:url(#SVGID_11_);}
	.st11{fill:url(#SVGID_12_);}
	.st12{fill:url(#SVGID_13_);}
	.st13{fill:url(#SVGID_14_);}
	.st14{fill:url(#SVGID_15_);}
	.st15{fill:url(#SVGID_16_);}
	.st16{fill:url(#SVGID_17_);}
	.st17{fill:url(#SVGID_18_);}
	.st18{fill:url(#SVGID_19_);}
	.st19{fill:url(#SVGID_20_);}
	.st20{fill:url(#SVGID_21_);}
	.st21{fill:url(#SVGID_22_);}
	.st22{fill:url(#SVGID_23_);}
	.st23{fill:url(#SVGID_24_);}
	.st24{fill:url(#SVGID_25_);}
	.st25{fill:url(#SVGID_26_);}
	.st26{fill:url(#SVGID_27_);}
	.st27{fill:url(#SVGID_28_);}
	.st28{fill:url(#SVGID_29_);}
	.st29{fill:url(#SVGID_30_);}
	.st30{fill:url(#SVGID_31_);}
	.st31{fill:url(#SVGID_32_);}
	.st32{fill:url(#SVGID_33_);}
	.st33{fill:url(#SVGID_34_);}
	.st34{fill:url(#SVGID_35_);}
	.st35{fill:url(#SVGID_36_);}
	.st36{fill:url(#SVGID_37_);}
	.st37{fill:url(#SVGID_38_);}
	.st38{fill:url(#SVGID_39_);}
	.st39{fill:url(#SVGID_40_);}
	.st40{fill:url(#SVGID_41_);}
	.st41{fill:url(#SVGID_42_);}
	.st42{fill:url(#SVGID_43_);}
	.st43{fill:url(#SVGID_44_);}
	.st44{fill:url(#SVGID_45_);}
	.st45{fill:url(#SVGID_46_);}
	.st46{fill:url(#SVGID_47_);}
	.st47{fill:url(#SVGID_48_);}
	.st48{fill:url(#SVGID_49_);}
	.st49{fill:url(#SVGID_50_);}
	.st50{fill:url(#SVGID_51_);}
	.st51{fill:url(#SVGID_52_);}
	.st52{fill:url(#SVGID_53_);}
	.st53{fill:url(#SVGID_54_);}
	.st54{fill:url(#SVGID_55_);}
	.st55{fill:url(#SVGID_56_);}
	.st56{fill:url(#SVGID_57_);}
	.st57{fill:url(#SVGID_58_);}
	.st58{fill:url(#SVGID_59_);}
	.st59{fill:url(#SVGID_60_);}
	.st60{fill:url(#SVGID_61_);}
	.st61{fill:url(#SVGID_62_);}
	.st62{fill:url(#SVGID_63_);}
	.st63{fill:url(#SVGID_64_);}
	.st64{fill:none;}
	.st65{fill:url(#SVGID_65_);}
	.st66{fill:url(#SVGID_66_);}
	.st67{fill:url(#SVGID_67_);}
	.st68{fill:url(#SVGID_68_);}
	.st69{fill:url(#SVGID_69_);}
	.st70{fill:url(#SVGID_70_);}
	.st71{fill:#D1ACE2;}
	.st72{fill:url(#SVGID_71_);}
	.st73{fill:url(#SVGID_72_);}
	.st74{fill:url(#SVGID_73_);}
	.st75{fill:url(#SVGID_74_);}
	.st76{fill:url(#SVGID_75_);}
	.st77{fill:url(#SVGID_76_);}
	.st78{fill:url(#SVGID_77_);}
	.st79{fill:url(#SVGID_78_);}
	.st80{fill:url(#SVGID_79_);}
	.st81{fill:url(#SVGID_80_);}
	.st82{fill:url(#SVGID_81_);}
	.st83{fill:url(#SVGID_82_);}
	.st84{fill:url(#SVGID_83_);}
	.st85{fill:url(#SVGID_84_);}
	.st86{fill:url(#SVGID_85_);}
	.st87{fill:url(#SVGID_86_);}
	.st88{fill:url(#SVGID_87_);}
	.st89{fill:url(#SVGID_88_);}
	.st90{fill:url(#SVGID_89_);}
	.st91{fill:url(#SVGID_90_);}
	.st92{fill:url(#SVGID_91_);}
	.st93{fill:url(#SVGID_92_);}
	.st94{fill:url(#SVGID_93_);}
	.st95{fill:url(#SVGID_94_);}
	.st96{fill:url(#SVGID_95_);}
	.st97{fill:url(#SVGID_96_);}
	.st98{fill:url(#SVGID_97_);}
	.st99{fill:url(#SVGID_98_);}
	.st100{fill:url(#SVGID_99_);}
	.st101{fill:url(#SVGID_100_);}
	.st102{fill:url(#SVGID_101_);}
	.st103{fill:url(#SVGID_102_);}
	.st104{fill:url(#SVGID_103_);}
	.st105{fill:url(#SVGID_104_);}
	.st106{fill:url(#SVGID_105_);}
	.st107{fill:url(#SVGID_106_);}
	.st108{fill:url(#SVGID_107_);}
	.st109{fill:url(#SVGID_108_);}
	.st110{opacity:0.15;fill:url(#SVGID_109_);}
	.st111{opacity:0.15;fill:url(#SVGID_110_);}
	.st112{fill:url(#SVGID_111_);}
	.st113{fill:url(#SVGID_112_);}
	.st114{fill:url(#SVGID_113_);}
	.st115{fill:url(#SVGID_114_);}
	.st116{fill:url(#SVGID_115_);}
	.st117{fill:url(#SVGID_116_);}
	.st118{fill:url(#SVGID_117_);}
	.st119{fill:url(#SVGID_118_);}
	.st120{fill:url(#SVGID_119_);}
	.st121{fill:url(#SVGID_120_);}
	.st122{fill:url(#SVGID_121_);}
	.st123{fill:url(#SVGID_122_);}
	.st124{fill:url(#SVGID_123_);}
	.st125{fill:url(#SVGID_124_);}
	.st126{fill:url(#SVGID_125_);}
	.st127{fill:url(#SVGID_126_);}
	.st128{fill:url(#SVGID_127_);}
	.st129{fill:url(#SVGID_128_);}
	.st130{fill:url(#SVGID_129_);}
	.st131{fill:url(#SVGID_130_);}
	.st132{fill:url(#SVGID_131_);}
	.st133{fill:url(#SVGID_132_);}
	.st134{fill:url(#SVGID_133_);}
	.st135{fill:url(#SVGID_134_);}
	.st136{fill:url(#SVGID_135_);}
	.st137{fill:url(#SVGID_136_);}
	.st138{fill:url(#SVGID_137_);}
	.st139{fill:url(#SVGID_138_);}
	.st140{fill:url(#SVGID_139_);}
	.st141{fill:url(#SVGID_140_);}
	.st142{fill:url(#SVGID_141_);}
	.st143{fill:url(#SVGID_142_);}
	.st144{fill:url(#SVGID_143_);}
	.st145{fill:url(#SVGID_144_);}
	.st146{fill:url(#SVGID_145_);}
	.st147{fill:url(#SVGID_146_);}
	.st148{fill:url(#SVGID_147_);}
	.st149{fill:url(#SVGID_148_);}
	.st150{fill:url(#SVGID_149_);}
	.st151{fill:url(#SVGID_150_);}
	.st152{fill:url(#SVGID_151_);}
	.st153{fill:url(#SVGID_152_);}
	.st154{fill:url(#SVGID_153_);}
	.st155{fill:url(#SVGID_154_);}
	.st156{fill:url(#SVGID_155_);}
	.st157{fill:url(#SVGID_156_);}
	.st158{fill:url(#SVGID_157_);}
	.st159{fill:url(#SVGID_158_);}
	.st160{fill:url(#SVGID_159_);}
	.st161{fill:url(#SVGID_160_);}
	.st162{fill:url(#SVGID_161_);}
	.st163{fill:url(#SVGID_162_);}
	.st164{fill:url(#SVGID_163_);}
	.st165{fill:url(#SVGID_164_);}
	.st166{fill:url(#SVGID_165_);}
	.st167{fill:url(#SVGID_166_);}
	.st168{fill:url(#SVGID_167_);}
	.st169{fill:url(#SVGID_168_);}
	.st170{fill:url(#SVGID_169_);}
	.st171{fill:url(#SVGID_170_);}
	.st172{fill:url(#SVGID_171_);}
	.st173{fill:url(#SVGID_172_);}
	.st174{fill:url(#SVGID_173_);}
	.st175{fill:#FFFFFF;stroke:#000000;stroke-width:0.4409;stroke-linecap:round;stroke-linejoin:round;stroke-miterlimit:10;}
	.st176{fill:url(#SVGID_174_);}
	.st177{fill:url(#SVGID_175_);}
	.st178{fill:url(#SVGID_176_);}
	.st179{fill:url(#SVGID_177_);}
	.st180{fill:url(#SVGID_178_);}
	.st181{fill:url(#SVGID_179_);}
	.st182{fill:url(#SVGID_180_);}
	.st183{fill:url(#SVGID_181_);}
	.st184{fill:url(#SVGID_182_);}
	.st185{fill:url(#SVGID_183_);}
	.st186{fill:url(#SVGID_184_);}
	.st187{fill:url(#SVGID_185_);}
	.st188{fill:url(#SVGID_186_);}
	.st189{fill:url(#SVGID_187_);}
	.st190{fill:url(#SVGID_188_);}
	.st191{fill:url(#SVGID_189_);}
	.st192{fill:url(#SVGID_190_);}
	.st193{fill:url(#SVGID_191_);}
	.st194{fill:url(#SVGID_192_);}
	.st195{fill:url(#SVGID_193_);}
	.st196{fill:url(#SVGID_194_);}
	.st197{fill:url(#SVGID_195_);}
	.st198{fill:url(#SVGID_196_);}
	.st199{fill:url(#SVGID_197_);}
	.st200{fill:url(#SVGID_198_);}
	.st201{fill:url(#SVGID_199_);}
	.st202{fill:url(#SVGID_200_);}
	.st203{fill:url(#SVGID_201_);}
	.st204{fill:url(#SVGID_202_);}
	.st205{fill:url(#SVGID_203_);}
	.st206{fill:url(#SVGID_204_);}
	.st207{fill:url(#SVGID_205_);}
	.st208{fill:url(#SVGID_206_);}
	.st209{fill:url(#SVGID_207_);}
	.st210{fill:url(#SVGID_208_);}
	.st211{fill:url(#SVGID_209_);}
	.st212{fill:url(#SVGID_210_);}
	.st213{fill:url(#SVGID_211_);}
	.st214{fill:url(#SVGID_212_);}
	.st215{fill:url(#SVGID_213_);}
	.st216{opacity:0.15;fill:url(#SVGID_214_);}
	.st217{opacity:0.15;fill:url(#SVGID_215_);}
	.st218{fill:url(#SVGID_216_);}
	.st219{fill:url(#SVGID_217_);}
	.st220{fill:url(#SVGID_218_);}
	.st221{fill:url(#SVGID_219_);}
	.st222{fill:url(#SVGID_220_);}
	.st223{fill:url(#SVGID_221_);}
	.st224{fill:url(#SVGID_222_);}
	.st225{fill:url(#SVGID_223_);}
	.st226{fill:url(#SVGID_224_);}
	.st227{fill:url(#SVGID_225_);}
	.st228{fill:url(#SVGID_226_);}
	.st229{fill:url(#SVGID_227_);}
	.st230{fill:url(#SVGID_228_);}
	.st231{fill:url(#SVGID_229_);}
	.st232{fill:url(#SVGID_230_);}
	.st233{fill:url(#SVGID_231_);}
	.st234{fill:url(#SVGID_232_);}
	.st235{fill:url(#SVGID_233_);}
	.st236{fill:url(#SVGID_234_);}
	.st237{fill:url(#SVGID_235_);}
	.st238{fill:url(#SVGID_236_);}
	.st239{fill:url(#SVGID_237_);}
	.st240{fill:url(#SVGID_238_);}
	.st241{fill:url(#SVGID_239_);}
	.st242{fill:url(#SVGID_240_);}
	.st243{fill:url(#SVGID_241_);}
	.st244{fill:url(#SVGID_242_);}
	.st245{fill:url(#SVGID_243_);}
	.st246{fill:url(#SVGID_244_);}
	.st247{fill:url(#SVGID_245_);}
	.st248{fill:url(#SVGID_246_);}
	.st249{fill:url(#SVGID_247_);}
	.st250{fill:url(#SVGID_248_);}
	.st251{fill:url(#SVGID_249_);}
	.st252{fill:url(#SVGID_250_);}
	.st253{fill:url(#SVGID_251_);}
	.st254{fill:url(#SVGID_252_);}
	.st255{fill:url(#SVGID_253_);}
	.st256{fill:url(#SVGID_254_);}
	.st257{fill:url(#SVGID_255_);}
	.st258{fill:url(#SVGID_256_);}
	.st259{fill:url(#SVGID_257_);}
	.st260{fill:url(#SVGID_258_);}
	.st261{fill:url(#SVGID_259_);}
	.st262{fill:url(#SVGID_260_);}
	.st263{fill:url(#SVGID_261_);}
	.st264{fill:url(#SVGID_262_);}
	.st265{fill:url(#SVGID_263_);}
	.st266{fill:url(#SVGID_264_);}
	.st267{fill:url(#SVGID_265_);}
	.st268{fill:url(#SVGID_266_);}
	.st269{fill:url(#SVGID_267_);}
	.st270{fill:url(#SVGID_268_);}
	.st271{fill:url(#SVGID_269_);}
	.st272{fill:url(#SVGID_270_);}
	.st273{fill:url(#SVGID_271_);}
	.st274{fill:url(#SVGID_272_);}
	.st275{fill:url(#SVGID_273_);}
	.st276{fill:url(#SVGID_274_);}
	.st277{fill:url(#SVGID_275_);}
	.st278{fill:url(#SVGID_276_);}
	.st279{fill:url(#SVGID_277_);}
	.st280{fill:url(#SVGID_278_);}
	.st281{fill:url(#SVGID_279_);}
	.st282{fill:url(#SVGID_280_);}
	.st283{fill:url(#SVGID_281_);}
	.st284{fill:url(#SVGID_282_);}
	.st285{fill:url(#SVGID_283_);}
	.st286{fill:url(#SVGID_284_);}
	.st287{fill:url(#SVGID_285_);}
	.st288{fill:url(#SVGID_286_);}
	.st289{fill:url(#SVGID_287_);}
	.st290{fill:url(#SVGID_288_);}
	.st291{fill:url(#SVGID_289_);}
	.st292{fill:url(#SVGID_290_);}
	.st293{fill:url(#SVGID_291_);}
	.st294{fill:url(#SVGID_292_);}
	.st295{fill:url(#SVGID_293_);}
	.st296{fill:url(#SVGID_294_);}
	.st297{fill:url(#SVGID_295_);}
	.st298{fill:url(#SVGID_296_);}
	.st299{fill:url(#SVGID_297_);}
	.st300{fill:url(#SVGID_298_);}
	.st301{fill:url(#SVGID_299_);}
	.st302{fill:url(#SVGID_300_);}
	.st303{fill:url(#SVGID_301_);}
	.st304{fill:url(#SVGID_302_);}
	.st305{fill:url(#SVGID_303_);}
	.st306{fill:url(#SVGID_304_);}
	.st307{fill:url(#SVGID_305_);}
	.st308{fill:url(#SVGID_306_);}
	.st309{fill:url(#SVGID_307_);}
	.st310{fill:url(#SVGID_308_);}
	.st311{fill:url(#SVGID_309_);}
	.st312{fill:url(#SVGID_310_);}
	.st313{fill:url(#SVGID_311_);}
	.st314{fill:url(#SVGID_312_);}
	.st315{fill:url(#SVGID_313_);}
	.st316{fill:url(#SVGID_314_);}
	.st317{fill:url(#SVGID_315_);}
	.st318{fill:url(#SVGID_316_);}
	.st319{fill:url(#SVGID_317_);}
	.st320{fill:url(#SVGID_318_);}
	.st321{fill:url(#SVGID_319_);}
	.st322{fill:url(#SVGID_320_);}
	.st323{fill:url(#SVGID_321_);}
	.st324{fill:#FFFFFF;stroke:#000000;stroke-width:0.5239;stroke-linecap:round;stroke-linejoin:round;stroke-miterlimit:10;}
	.st325{fill:url(#SVGID_322_);}
	.st326{fill:url(#SVGID_323_);}
	.st327{fill:url(#SVGID_324_);}
	.st328{fill:url(#SVGID_325_);}
	.st329{fill:url(#SVGID_326_);}
	.st330{fill:url(#SVGID_327_);}
	.st331{fill:url(#SVGID_328_);}
	.st332{fill:url(#SVGID_329_);}
	.st333{fill:url(#SVGID_330_);}
	.st334{fill:url(#SVGID_331_);}
	.st335{fill:url(#SVGID_332_);}
	.st336{fill:url(#SVGID_333_);}
	.st337{fill:url(#SVGID_334_);}
	.st338{fill:url(#SVGID_335_);}
	.st339{fill:url(#SVGID_336_);}
	.st340{fill:url(#SVGID_337_);}
	.st341{fill:url(#SVGID_338_);}
	.st342{fill:url(#SVGID_339_);}
	.st343{fill:url(#SVGID_340_);}
	.st344{fill:url(#SVGID_341_);}
	.st345{fill:url(#SVGID_342_);}
	.st346{fill:url(#SVGID_343_);}
	.st347{fill:url(#SVGID_344_);}
	.st348{fill:url(#SVGID_345_);}
	.st349{fill:url(#SVGID_346_);}
	.st350{fill:url(#SVGID_347_);}
	.st351{fill:url(#SVGID_348_);}
	.st352{fill:url(#SVGID_349_);}
	.st353{fill:url(#SVGID_350_);}
	.st354{fill:url(#SVGID_351_);}
	.st355{fill:url(#SVGID_352_);}
	.st356{fill:#FFFFFF;}
	.st357{fill:url(#SVGID_353_);}
	.st358{fill:url(#SVGID_354_);}
	.st359{fill:url(#SVGID_355_);}
	.st360{fill:url(#SVGID_356_);}
	.st361{fill:url(#SVGID_357_);}
	.st362{fill:url(#SVGID_358_);}
	.st363{fill:url(#SVGID_359_);}
	.st364{fill:url(#SVGID_360_);}
	.st365{fill:url(#SVGID_361_);}
	.st366{fill:url(#SVGID_362_);}
	.st367{fill:url(#SVGID_363_);}
	.st368{fill:url(#SVGID_364_);}
	.st369{fill:url(#SVGID_365_);}
	.st370{fill:url(#SVGID_366_);}
	.st371{fill:url(#SVGID_367_);}
	.st372{fill:url(#SVGID_368_);}
	.st373{fill:url(#SVGID_369_);}
	.st374{fill:url(#SVGID_370_);}
	.st375{fill:url(#SVGID_371_);}
	.st376{fill:url(#SVGID_372_);}
	.st377{fill:url(#SVGID_373_);}
	.st378{fill:url(#SVGID_374_);}
	.st379{fill:url(#SVGID_375_);}
</style>
<g id="Layer_1">
</g>
<g id="Layer_2">
</g>
<g id="Layer_3">
	<linearGradient id="SVGID_1_" gradientUnits="userSpaceOnUse" x1="3.4596" y1="179.5388" x2="222.985" y2="179.5388">
		<stop  offset="0" style="stop-color:#81099F"/>
		<stop  offset="1" style="stop-color:#6981D9"/>
	</linearGradient>
	<ellipse class="st0" cx="113.22" cy="179.54" rx="109.76" ry="17.96"/>
</g>
<g id="Layer_4">
	<linearGradient id="SVGID_2_" gradientUnits="userSpaceOnUse" x1="48.6218" y1="67.0105" x2="48.6218" y2="184.5192">
		<stop  offset="0" style="stop-color:#22348A"/>
		<stop  offset="0.9378" style="stop-color:#040613"/>
	</linearGradient>
	<path style="fill:url(#SVGID_2_);" d="M85.21,177.67H21.97c-1.4,0-2.57-1.06-2.7-2.45L9.33,72.84c-0.15-1.6,1.1-2.98,2.7-2.98h63.3
		c1.4,0,2.57,1.06,2.7,2.45l9.88,102.38C88.07,176.29,86.81,177.67,85.21,177.67z"/>
	<linearGradient id="SVGID_3_" gradientUnits="userSpaceOnUse" x1="13.4011" y1="121.1182" x2="81.8435" y2="121.1182">
		<stop  offset="0" style="stop-color:#8CC1FB"/>
		<stop  offset="1" style="stop-color:#5FE4FE"/>
	</linearGradient>
	<path class="st2" d="M77.48,168.33H26.08c-2.25,0-4.13-1.71-4.35-3.94L13.42,78.7c-0.25-2.57,1.77-4.79,4.35-4.79h51.44
		c2.25,0,4.13,1.71,4.35,3.95l8.27,85.69C82.07,166.11,80.05,168.33,77.48,168.33z"/>
	<linearGradient id="SVGID_4_" gradientUnits="userSpaceOnUse" x1="19.1964" y1="89.1057" x2="57.8074" y2="89.1057">
		<stop  offset="0" style="stop-color:#8CC1FB"/>
		<stop  offset="1" style="stop-color:#F3F9FE"/>
	</linearGradient>
	<polygon class="st3" points="57.81,94.84 20.52,94.84 19.2,83.38 56.51,83.38 	"/>
	<linearGradient id="SVGID_5_" gradientUnits="userSpaceOnUse" x1="80.9019" y1="154.6254" x2="34.2043" y2="154.6254">
		<stop  offset="0" style="stop-color:#8CC1FB"/>
		<stop  offset="1" style="stop-color:#F3F9FE"/>
	</linearGradient>
	<polygon class="st4" points="79.36,160.36 42.07,160.36 40.75,148.9 78.06,148.9 	"/>
	<linearGradient id="SVGID_6_" gradientUnits="userSpaceOnUse" x1="23.6806" y1="132.7648" x2="63.1636" y2="132.7648">
		<stop  offset="0" style="stop-color:#8CC1FB"/>
		<stop  offset="1" style="stop-color:#F3F9FE"/>
	</linearGradient>
	<polygon class="st5" points="63.16,143.29 25.88,143.29 23.68,122.24 61,122.24 	"/>
	<linearGradient id="SVGID_7_" gradientUnits="userSpaceOnUse" x1="80.9019" y1="108.5997" x2="34.2043" y2="108.5997">
		<stop  offset="0" style="stop-color:#8CC1FB"/>
		<stop  offset="1" style="stop-color:#F3F9FE"/>
	</linearGradient>
	<polygon class="st6" points="74.75,116.51 37.46,116.51 36.14,100.69 73.45,100.69 	"/>
	<linearGradient id="SVGID_8_" gradientUnits="userSpaceOnUse" x1="45.6492" y1="67.0105" x2="45.6492" y2="184.5192">
		<stop  offset="0" style="stop-color:#22348A"/>
		<stop  offset="0.9378" style="stop-color:#040613"/>
	</linearGradient>
	<path class="st7" d="M34.45,72.6c0,0-1.87,5.11,12.33,5.11s9.34-5.98,9.34-5.98"/>
	<linearGradient id="SVGID_9_" gradientUnits="userSpaceOnUse" x1="171.9383" y1="67.0105" x2="171.9383" y2="184.5192">
		<stop  offset="0" style="stop-color:#22348A"/>
		<stop  offset="0.9378" style="stop-color:#040613"/>
	</linearGradient>
	<path class="st8" d="M135.35,177.67h63.24c1.4,0,2.57-1.06,2.7-2.45l9.94-102.38c0.15-1.6-1.1-2.98-2.7-2.98h-63.3
		c-1.4,0-2.57,1.06-2.7,2.45l-9.88,102.38C132.49,176.29,133.75,177.67,135.35,177.67z"/>
	<linearGradient id="SVGID_10_" gradientUnits="userSpaceOnUse" x1="137.7166" y1="121.1182" x2="206.159" y2="121.1182">
		<stop  offset="0" style="stop-color:#8CC1FB"/>
		<stop  offset="1" style="stop-color:#5FE4FE"/>
	</linearGradient>
	<path class="st9" d="M142.08,168.33h51.39c2.25,0,4.13-1.71,4.35-3.94l8.32-85.69c0.25-2.57-1.77-4.79-4.35-4.79h-51.44
		c-2.25,0-4.13,1.71-4.35,3.95l-8.27,85.69C137.49,166.11,139.51,168.33,142.08,168.33z"/>
	<linearGradient id="SVGID_11_" gradientUnits="userSpaceOnUse" x1="141.2035" y1="154.6254" x2="179.8145" y2="154.6254">
		<stop  offset="0" style="stop-color:#8CC1FB"/>
		<stop  offset="1" style="stop-color:#F3F9FE"/>
	</linearGradient>
	<polygon class="st10" points="141.2,160.36 178.49,160.36 179.81,148.9 142.5,148.9 	"/>
	<linearGradient id="SVGID_12_" gradientUnits="userSpaceOnUse" x1="198.5417" y1="109.7831" x2="157.7778" y2="109.7831">
		<stop  offset="0" style="stop-color:#8CC1FB"/>
		<stop  offset="1" style="stop-color:#F3F9FE"/>
	</linearGradient>
	<polygon class="st11" points="160.51,115.51 197.79,115.51 199.12,104.05 161.8,104.05 	"/>
	<linearGradient id="SVGID_13_" gradientUnits="userSpaceOnUse" x1="198.5417" y1="132.7648" x2="157.7778" y2="132.7648">
		<stop  offset="0" style="stop-color:#8CC1FB"/>
		<stop  offset="1" style="stop-color:#F3F9FE"/>
	</linearGradient>
	<polygon class="st12" points="157.4,143.29 194.68,143.29 196.88,122.24 159.56,122.24 	"/>
	<linearGradient id="SVGID_14_" gradientUnits="userSpaceOnUse" x1="146.8088" y1="89.5417" x2="185.4198" y2="89.5417">
		<stop  offset="0" style="stop-color:#8CC1FB"/>
		<stop  offset="1" style="stop-color:#F3F9FE"/>
	</linearGradient>
	<polygon class="st13" points="146.81,97.45 184.09,97.45 185.42,81.63 148.1,81.63 	"/>
	<linearGradient id="SVGID_15_" gradientUnits="userSpaceOnUse" x1="174.9109" y1="67.0105" x2="174.9109" y2="184.5192">
		<stop  offset="0" style="stop-color:#22348A"/>
		<stop  offset="0.9378" style="stop-color:#040613"/>
	</linearGradient>
	<path class="st14" d="M186.11,72.6c0,0,1.87,5.11-12.33,5.11s-9.34-5.98-9.34-5.98"/>
	<linearGradient id="SVGID_16_" gradientUnits="userSpaceOnUse" x1="209.2668" y1="67.0105" x2="209.2668" y2="184.5192">
		<stop  offset="0" style="stop-color:#22348A"/>
		<stop  offset="0.9378" style="stop-color:#040613"/>
	</linearGradient>
	<path class="st15" d="M208.55,87.48c0,0,2.93-0.9,2.52,7.09c-0.41,7.99-3.63,5.08-3.63,5.08"/>
	<linearGradient id="SVGID_17_" gradientUnits="userSpaceOnUse" x1="208.1379" y1="67.0105" x2="208.1379" y2="184.5192">
		<stop  offset="0" style="stop-color:#22348A"/>
		<stop  offset="0.9378" style="stop-color:#040613"/>
	</linearGradient>
	<path class="st16" d="M205.92,113.41c0,0,2.64,1.56,4.1-6.31s-2.35-5.79-2.35-5.79"/>
	<linearGradient id="SVGID_18_" gradientUnits="userSpaceOnUse" x1="59.8004" y1="46.1006" x2="158.7027" y2="46.1006">
		<stop  offset="0" style="stop-color:#81099F"/>
		<stop  offset="1" style="stop-color:#6981D9"/>
	</linearGradient>
	<path class="st17" d="M150.11,12.5H68.4c-4.75,0-8.59,3.85-8.59,8.59v35.62c0,4.43,3.35,8.08,7.66,8.54V79.7l16.08-14.39h52.04
		l16.08,14.39V65.17c4-0.73,7.04-4.24,7.04-8.45V21.09C158.7,16.35,154.85,12.5,150.11,12.5z"/>
	<g>
		<g>
			<g>
				<path class="st356" d="M122.18,54.07H92.91c-1.67,0-3.03-1.37-3.03-3.03V35.59c0-1.67,1.37-3.03,3.03-3.03h29.27
					c1.67,0,3.03,1.37,3.03,3.03v15.44C125.24,52.7,123.85,54.07,122.18,54.07z"/>
			</g>
		</g>
		<g>
			<path class="st356" d="M93.54,57.65c0,0.71-0.57,1.26-1.26,1.26h-1.12c-0.71,0-1.26-0.57-1.26-1.26V43.49
				c0-0.71,0.57-1.26,1.26-1.26h1.12c0.71,0,1.26,0.57,1.26,1.26V57.65z"/>
		</g>
		<g>
			<path class="st356" d="M102.59,57.16c0.16,0.68-0.27,1.37-0.96,1.53l-1.59,0.36c-0.68,0.16-1.37-0.27-1.53-0.96l-3.2-14.21
				c-0.16-0.68,0.27-1.37,0.96-1.53l1.59-0.36c0.68-0.16,1.37,0.27,1.53,0.96L102.59,57.16z"/>
		</g>
		<g>
			<path class="st356" d="M118.55,57.65c0,0.71-0.57,1.26-1.26,1.26h-1.12c-0.71,0-1.26-0.57-1.26-1.26V46.17
				c0-0.71,0.57-1.26,1.26-1.26h1.12c0.71,0,1.26,0.57,1.26,1.26V57.65z"/>
		</g>
		<g>
			<path class="st356" d="M125.24,57.65c0,0.71-0.57,1.26-1.26,1.26h-1.12c-0.71,0-1.26-0.57-1.26-1.26V40.49
				c0-0.71,0.57-1.26,1.26-1.26h1.12c0.71,0,1.26,0.57,1.26,1.26V57.65z"/>
		</g>
		<g>
			<path class="st356" d="M127.24,25.73c-0.03-0.05-0.08-0.11-0.11-0.16c-0.27-0.46-0.68-0.87-0.93-1.23
				c-0.33-0.46-0.74-0.87-1.23-1.2l-1.04-0.71c-2.3-1.56-5.44-0.93-7,1.37l-6.97,10.3c-1.56,2.3-0.96,5.44,1.34,7l1.04,0.71
				c2.3,1.56,5.44,0.93,7-1.37l3.69-5.44c0.38-0.55,1.09-0.77,1.69-0.49l4.24,1.94c0.57,0.25,1.23,0.11,1.64-0.38l1.64-2.02
				c0.41-0.49,0.41-1.2,0.03-1.69L127.24,25.73z M123.22,29.88c-1.48,0-2.68-1.2-2.68-2.68s1.2-2.68,2.68-2.68s2.68,1.2,2.68,2.68
				C125.9,28.68,124.7,29.88,123.22,29.88z"/>
		</g>
		<g>
			<circle class="st356" cx="123.9" cy="27.2" r="0.79"/>
		</g>
		<g>
			<path class="st356" d="M109.45,31.63c0.33,0,0.63-0.16,0.82-0.44l5.82-8.39c1.09-1.64,2.81-2.54,4.32-2.51
				c1.75,0.03,3.42,0.6,4.89,1.64c0.03,0.03,0.05,0.03,0.08,0.05l0,0c0.16,0.08,0.44-0.41,0.6-1.09l0.87-3.63
				c0.08-0.3-0.16-0.6-0.49-0.6h-7.43c-0.71,0-1.23,0-1.2,0.03l0,0c-1.5-0.05-3.2,0.87-4.32,2.51l-6.89,10.19
				c-0.38,0.57-0.6,1.12-0.74,1.69c-0.08,0.3,0.16,0.63,0.49,0.63L109.45,31.63z"/>
		</g>
		<g>
			<path class="st356" d="M102.83,31.58l-1.61,0.03c-0.16,0-0.3-0.14-0.33-0.3c-0.16-4.26-3.5-7.71-7.76-7.79
				c-0.08,0-0.16-0.08-0.16-0.16v-1.64c0-0.14,0.11-0.25,0.25-0.25c5.38,0.14,9.73,4.48,9.84,9.84
				C103.08,31.47,102.97,31.58,102.83,31.58z"/>
		</g>
		<g>
			<path class="st356" d="M105.95,27.75c-1.64-5.52-6.72-9.59-12.76-9.67c-0.11,0-0.19,0.08-0.19,0.19v1.94
				c0,0.11,0.08,0.16,0.16,0.16c5.74,0.08,10.47,4.81,11.01,10.41c0.03,0.16,0.25,0.22,0.33,0.05l1.37-2.41
				C105.97,28.24,106,28,105.95,27.75z"/>
		</g>
		<g>
			<path class="st356" d="M108.3,24.55c-2.65-5.71-8.39-9.73-15.09-9.81c-0.11,0-0.22,0.08-0.22,0.22v1.89
				c0,0.11,0.08,0.19,0.19,0.19c6.2,0.08,11.48,4.07,13.47,9.59c0.05,0.16,0.27,0.19,0.36,0.05l1.23-1.91
				C108.3,24.69,108.32,24.61,108.3,24.55z"/>
		</g>
	</g>
	<g>
		<path class="st71" d="M161.82,182.78c0,0,0,3.86,0.25,4.36c0.25,0.5,1.62,2.49,1.12,2.99c-0.5,0.5-3.74-0.25-3.74-0.62
			s0.37-6.35,0.37-6.73S161.82,182.78,161.82,182.78z"/>
		<path class="st71" d="M154.35,182.78c0,0,0,3.86-0.25,4.36c-0.25,0.5-1.62,2.49-1.12,2.99s3.74-0.25,3.74-0.62
			s-0.37-6.35-0.37-6.73S154.35,182.78,154.35,182.78z"/>
		<path class="st71" d="M170.04,119.37c0.15-0.22,2.49-1.05,2.62-1.41c0.13-0.37,2.92-10.09,3.54-10.7
			c-0.11-0.86,0.57-5.15,1.91-4.27s0.48,5.11-0.27,5.46c0.21,6.45-3.01,12.12-3.75,12.48s-2.85,1.68-2.85,1.68L170.04,119.37z"/>
		<path class="st71" d="M149.24,128.47c0,0-0.62,5.61-0.62,6.23c0,0.62-2.37,9.09-2.86,9.84c-0.5,0.75-2.74,2.12-1.37,4.86
			c1.37,2.74,2.99-4.36,2.99-4.36s4.36-6.85,4.86-12.08C152.72,127.72,151.98,127.72,149.24,128.47z"/>
		<linearGradient id="SVGID_19_" gradientUnits="userSpaceOnUse" x1="150.2622" y1="159.3277" x2="165.2906" y2="159.3277">
			<stop  offset="0" style="stop-color:#F8728A"/>
			<stop  offset="1" style="stop-color:#F1334B"/>
		</linearGradient>
		<path class="st18" d="M153.47,135.32c0,0-3.86,5.52-3.11,10.96c1.12,8.22,2.74,36.12,3.61,36.62c0.87,0.5,2.74,0.5,2.74,0.5
			s0.56-20.74,0.69-21.11c0.12-0.37-0.37-14.82,0.37-14.7c0.75,0.12,0.62,13.7,0.62,14.32c0,0.62,0.62,21.18,1,21.18
			s2.74,0.37,3.11,0.12c0.37-0.25,2.49-14.2,1.25-20.8c0.37-3.86,2.18-13.89,1.31-17.87s-2.06-9.28-2.06-9.28
			S156.27,136.5,153.47,135.32z"/>
		<linearGradient id="SVGID_20_" gradientUnits="userSpaceOnUse" x1="156.5693" y1="139.0264" x2="156.5693" y2="122.3478">
			<stop  offset="0" style="stop-color:#6A90C6"/>
			<stop  offset="1" style="stop-color:#9AB0D9"/>
		</linearGradient>
		<path class="st19" d="M153.97,120.5c0,0-4.61,0.87-4.73,2.24c-0.12,1.37-1.37,6.1-0.75,6.35c0.62,0.25,3.61,0.5,3.74,0.87
			c0.12,0.37,0,4.48,1.49,5.61c1.49,1.12,9.47,0.5,9.72-0.37s1.87-12.46,1.25-13.33c-0.62-0.87-2.86-1.12-2.86-1.12
			S156.71,124.23,153.97,120.5z"/>
		<path class="st71" d="M153.6,121.12c0,0,2.37-2.37,2.74-3.99s3.86-0.5,3.86-0.5s-0.12,3.36,1.74,4.61
			C160.57,122.61,156.34,125.23,153.6,121.12z"/>
		<linearGradient id="SVGID_21_" gradientUnits="userSpaceOnUse" x1="148.6132" y1="109.7612" x2="166.3057" y2="109.7612">
			<stop  offset="0" style="stop-color:#3C9A5C"/>
			<stop  offset="1" style="stop-color:#49B96D"/>
		</linearGradient>
		<path class="st20" d="M163.62,115.64c0,0,0.19,1.12-1.31,1.87c2.37,0.62,4.98-3.24,3.61-5.73c-1.37-2.49-1.37-5.36-1.37-6.48
			c0-1.12-2.24-2.37-2.99-1.62c-1.37-2.99-7.97-1.99-8.22,0c-0.25,1.99-1.74,3.49-2.49,3.99c-0.75,0.5-0.5,1.87-0.5,3.61
			c0,1.74-0.62,2.37-1.74,2.49c1,0.75,2.49,0.37,2.49,0.37s-1.12,0.87-1.87,0.62c0.87,0.75,2.86,0.37,2.86,0.37
			S155.34,120.62,163.62,115.64z"/>
		<linearGradient id="SVGID_22_" gradientUnits="userSpaceOnUse" x1="167.345" y1="139.0264" x2="167.345" y2="122.3478">
			<stop  offset="0" style="stop-color:#6A90C6"/>
			<stop  offset="1" style="stop-color:#9AB0D9"/>
		</linearGradient>
		<path class="st21" d="M162.84,121.31c0,0,6.91-2.11,7.47-2.53c-0.45,1.28,1.54,3.83,1.54,3.83s-6.97,3.45-7.42,4.73"/>
		<linearGradient id="SVGID_23_" gradientUnits="userSpaceOnUse" x1="158.917" y1="189.7625" x2="164.1004" y2="189.7625">
			<stop  offset="0" style="stop-color:#6A90C6"/>
			<stop  offset="1" style="stop-color:#9AB0D9"/>
		</linearGradient>
		<path class="st22" d="M161.32,188.63c0.8-0.8,1.62,0.62,2.12,0.75c0.5,0.12,1,1.74,0.37,1.74s-4.73,0.12-4.86-0.37
			s0.12-1.87,0.12-1.87S160.32,189.75,161.32,188.63z"/>
		<linearGradient id="SVGID_24_" gradientUnits="userSpaceOnUse" x1="152.0661" y1="189.7625" x2="157.2495" y2="189.7625">
			<stop  offset="0" style="stop-color:#6A90C6"/>
			<stop  offset="1" style="stop-color:#9AB0D9"/>
		</linearGradient>
		<path class="st23" d="M154.85,188.63c-0.8-0.8-1.62,0.62-2.12,0.75c-0.5,0.12-1,1.74-0.37,1.74c0.62,0,4.73,0.12,4.86-0.37
			s-0.12-1.87-0.12-1.87S155.84,189.75,154.85,188.63z"/>
	</g>
	<g>
		<linearGradient id="SVGID_25_" gradientUnits="userSpaceOnUse" x1="40.9998" y1="119.1078" x2="61.2951" y2="119.1078">
			<stop  offset="0" style="stop-color:#E5E15A"/>
			<stop  offset="0.8568" style="stop-color:#E9E993"/>
		</linearGradient>
		<path class="st24" d="M50.96,108.91c-2.86-0.75-3.11,1.37-3.99,1.49c-0.87,0.12-3.86,0.87-3.49,1.62
			c-3.36,0.62-2.62,3.11-1.74,3.36c-0.37,1.25,2.24,4.11,2.86,4.24c-1,1.62,2.24,3.49,3.61,3.24c0.37,2.37,5.85,3.11,5.85,3.11
			s1.74,1.62,1.37,3.49l5.85-12.33c0,0-4.98-0.25-5.48,0.87c-1.25-1.25-3.36-1.12-3.36-1.12s-1.87-1.87-3.24-1.62
			c2.24-0.62,2.62-1.49,2.62-1.49"/>
		<path class="st71" d="M69.39,114.52c0.12-0.25,0-2.37,0-2.37l-5.48,0.12l-0.25,2.49L69.39,114.52z"/>
		<linearGradient id="SVGID_26_" gradientUnits="userSpaceOnUse" x1="58.9827" y1="106.7891" x2="73.8989" y2="106.7891">
			<stop  offset="0" style="stop-color:#6A90C6"/>
			<stop  offset="1" style="stop-color:#9AB0D9"/>
		</linearGradient>
		<path class="st25" d="M70.39,113.64c0,0,1.12-1.99,0.62-2.37c0.5-0.87,0.12-1.12,0.12-1.12s2.86-0.75,1.99-2.74
			c1.87-2.86-0.25-3.36-0.25-3.36s0.37-1.37-1-1.62c0.12-3.61-1.87-2.24-1.87-2.24s-1.37-1.37-2.12-0.5c-1-1-2.37,0.12-2.37,0.5
			c-2.37-2.74-4.48,0.87-3.86,1.74c-1.87-0.25-1.74,2.24-1.49,2.37c-1.49,0-1,1.87-0.62,1.87c-1.49,1,0.37,2.99,0.87,2.74
			c-1,1,0.87,1.74,1.25,1.49c-1.12,0.87,0.75,1.37,0.75,1.37s-0.12,2.74,0.75,2.62c0.87-0.12,0.5-1.62,0.87-1.49
			c0.37,0.12,0.87,0.87,1.49,0.37c0.75,1,1.74-0.12,1.74-0.12s1,0.62,1.62,0.12C69.14,114.14,69.39,114.64,70.39,113.64z"/>
		<path class="st71" d="M56.31,110.9c0.25,0.12,4.73,2.12,5.85,0.62c1.12-1.49-3.24-0.12-2.37-1.25c0.87-1.12,3.61,0.87,3.74-0.75
			s-2.24-4.11-2.99-3.61c-0.75,0.5-4.24,2.12-4.24,2.12V110.9z"/>
		<linearGradient id="SVGID_27_" gradientUnits="userSpaceOnUse" x1="53.8214" y1="109.5626" x2="56.8854" y2="109.5626">
			<stop  offset="0" style="stop-color:#F8728A"/>
			<stop  offset="1" style="stop-color:#F1334B"/>
		</linearGradient>
		<path class="st26" d="M54.44,108.29c0.25,0,1.62-1.37,1.87-0.25c0.25,1.12,1,3.49,0.25,3.49c-0.75,0-2.74-0.12-2.74-0.12
			L54.44,108.29z"/>
		<linearGradient id="SVGID_28_" gradientUnits="userSpaceOnUse" x1="50.9565" y1="110.5089" x2="55.3161" y2="110.5089">
			<stop  offset="0" style="stop-color:#E5E15A"/>
			<stop  offset="0.8568" style="stop-color:#E9E993"/>
		</linearGradient>
		<path class="st27" d="M51.83,113.77c0,0,3.36-0.5,3.49-2.12c0-1.62-0.37-4.11-1-4.36c-0.62-0.25-3.24,0.62-3.36,1.62"/>
		<path class="st71" d="M71.92,183.69l0.95,3.2c0,0-3.61,0.37-3.49,0c0.12-0.37,0.12-3.11,0.12-3.11L71.92,183.69z"/>
		<path class="st71" d="M67.27,183.52c0,0.12,0,3.24,0,3.24h-3.24l1-3.11L67.27,183.52z"/>
		<path class="st71" d="M82.22,146.53c0,0,1.87,1.87,1.49,3.74c-0.37,1.87-0.62,4.73-1.74,3.36c-1.12-1.37-0.25-2.99-1-2.62
			c-0.75,0.37-1.25-3.11-0.87-3.86S82.22,146.53,82.22,146.53z"/>
		<linearGradient id="SVGID_29_" gradientUnits="userSpaceOnUse" x1="79.1785" y1="146.0929" x2="82.8793" y2="146.0929">
			<stop  offset="0" style="stop-color:#F8728A"/>
			<stop  offset="1" style="stop-color:#F1334B"/>
		</linearGradient>
		<path class="st28" d="M79.61,145.53c0,0-0.87,1.99-0.12,1.99s3.24-0.12,3.36-0.62c0.12-0.5-0.12-2.24-0.12-2.24L79.61,145.53z"/>
		<linearGradient id="SVGID_30_" gradientUnits="userSpaceOnUse" x1="77.3636" y1="132.0056" x2="84.3746" y2="132.0056">
			<stop  offset="0" style="stop-color:#E5E15A"/>
			<stop  offset="0.8568" style="stop-color:#E9E993"/>
		</linearGradient>
		<path class="st29" d="M77.74,117.88c0,0,2.49,1.12,2.74,2.99s1,2.12,1.49,3.11c0.5,1-1.12,1.25-0.25,2.62
			c0.87,1.37,1.37,2.62,1.12,3.49c-0.25,0.87-0.62,1,0.37,2.49s0.12,3.49,0,4.48c-0.12,1,0.37,1.74,0.75,2.74
			c0.37,1-0.37,0.62-0.25,1.99c0.12,1.37,1.25,2.86,0.25,3.36s-4.86,1.25-5.36,0.87c-0.5-0.37-1.25-3.61-1.25-3.61L77.74,117.88z"/>
		<linearGradient id="SVGID_31_" gradientUnits="userSpaceOnUse" x1="58.4182" y1="166.1056" x2="77.2432" y2="166.1056">
			<stop  offset="0" style="stop-color:#3C9A5C"/>
			<stop  offset="1" style="stop-color:#49B96D"/>
		</linearGradient>
		<path class="st30" d="M77.24,148.9c0,0,0.12,12.08-1,17.81c1.37,4.86-2.99,16.82-2.99,16.82s-4.11,0.62-3.86,0.25
			s-0.75-21.05-1.62-21.05c-0.87,0,0.25,20.55,0.25,20.55h-4.48c0,0-3.36-7.85-3.86-16.69c-0.5-8.84-1.37-7.47-1.25-16.57
			C65.16,147.03,77.24,148.9,77.24,148.9z"/>
		<linearGradient id="SVGID_32_" gradientUnits="userSpaceOnUse" x1="61.9257" y1="150.2023" x2="61.9257" y2="157.2876">
			<stop  offset="0" style="stop-color:#3C9A5C"/>
			<stop  offset="1" style="stop-color:#49B96D"/>
		</linearGradient>
		<path class="st31" d="M59.36,149.64c0,0-0.44,5.85,0.44,6.23c0.87,0.37,4.86,0.75,4.73-0.25c-0.12-1,0.06-6.6,0.06-6.6"/>
		<linearGradient id="SVGID_33_" gradientUnits="userSpaceOnUse" x1="72.5135" y1="150.2023" x2="72.5135" y2="157.2876">
			<stop  offset="0" style="stop-color:#3C9A5C"/>
			<stop  offset="1" style="stop-color:#49B96D"/>
		</linearGradient>
		<path class="st32" d="M69.95,149.64c0,0-0.44,5.85,0.44,6.23s4.86,0.75,4.73-0.25c-0.12-1,0.06-6.6,0.06-6.6"/>
		<linearGradient id="SVGID_34_" gradientUnits="userSpaceOnUse" x1="71.5715" y1="179.4391" x2="71.5715" y2="185.6329">
			<stop  offset="0" style="stop-color:#3C9A5C"/>
			<stop  offset="1" style="stop-color:#49B96D"/>
		</linearGradient>
		<path class="st33" d="M74.25,182.53c0,0-0.37,1.25-0.5,1.37c-0.12,0.12-4.86,0.87-4.86,0.12s0.12-1.49,0.12-1.49H74.25z"/>
		<linearGradient id="SVGID_35_" gradientUnits="userSpaceOnUse" x1="65.5233" y1="179.4391" x2="65.5233" y2="185.6329">
			<stop  offset="0" style="stop-color:#3C9A5C"/>
			<stop  offset="1" style="stop-color:#49B96D"/>
		</linearGradient>
		<path class="st34" d="M62.79,182.78c0,0-0.12,1.25,0.37,1.37c0.5,0.12,5.11-0.37,5.11-0.37v-1H62.79z"/>
		<linearGradient id="SVGID_36_" gradientUnits="userSpaceOnUse" x1="60.1724" y1="187.9753" x2="67.7423" y2="187.9753">
			<stop  offset="0" style="stop-color:#E5E15A"/>
			<stop  offset="0.8568" style="stop-color:#E9E993"/>
		</linearGradient>
		<path class="st35" d="M67.24,186.26c0,0,0.9,2.99,0.28,3.24c-0.62,0.25-7.47,0.37-7.35-0.25c0.12-0.62,3.61-2.86,3.86-2.99
			C64.28,186.14,66.09,186.64,67.24,186.26z"/>
		<linearGradient id="SVGID_37_" gradientUnits="userSpaceOnUse" x1="68.8657" y1="188.0219" x2="76.6192" y2="188.0219">
			<stop  offset="0" style="stop-color:#E5E15A"/>
			<stop  offset="0.8568" style="stop-color:#E9E993"/>
		</linearGradient>
		<path class="st36" d="M69.14,186.51c0,0-0.62,2.49,0,2.74s7.35,0.62,7.47,0.12c0.12-0.5-3.8-2.96-3.8-2.96L69.14,186.51z"/>
		<linearGradient id="SVGID_38_" gradientUnits="userSpaceOnUse" x1="54.7857" y1="133.0355" x2="78.3631" y2="133.0355">
			<stop  offset="0" style="stop-color:#F8728A"/>
			<stop  offset="1" style="stop-color:#F1334B"/>
		</linearGradient>
		<path class="st37" d="M59.43,116.51c0,0-3.49,0.5-3.74,1.49c-0.25,1-2.99,25.78,2.49,32.26c4.61,0,18.19,1,19.31-1
			c1.12-1.99,1.12-28.65,0.25-31.39C76.87,115.14,63.79,115.01,59.43,116.51z"/>
		<linearGradient id="SVGID_39_" gradientUnits="userSpaceOnUse" x1="59.2362" y1="116.986" x2="74.7578" y2="116.986">
			<stop  offset="0" style="stop-color:#E5E15A"/>
			<stop  offset="0.8568" style="stop-color:#E9E993"/>
		</linearGradient>
		<path class="st38" d="M62.04,114.39c-1.49,0.62-3.61,1-2.49,2.49c1.12,1.49,3.49,3.24,7.22,3.36c3.74,0.12,8.22-3.61,7.97-4.24
			c-0.25-0.62-4.24-2.62-4.61-2.24c-0.37,0.37-3.36,1.49-5.23,0.62C63.04,113.52,62.04,114.39,62.04,114.39z"/>
	</g>
</g>
</svg>
